<svg width="139" height="50" fill="none" xmlns="http://www.w3.org/2000/svg"><g clip-path="url(#a)"><path d="M27.912 7.784 23.31 36.082h-6.612l1.68-10.218h-7.122L9.61 36.082H3L7.639 7.784h6.575l-1.972 11.948h7.122l1.974-11.948h6.575-.001Zm13.561 28.298.22-6.17h-6.1l-1.79 6.17h-6.977l9.388-28.298h12.053l.147 28.298H41.473Zm-1.497-21.42-2.885 9.983h4.785l.401-9.982h-2.301v-.001Zm36.807-6.878L72.18 36.082h-6.612l-4.601-15.484-2.484 15.485H51.87l4.639-28.299h6.794l4.53 14.464 2.373-14.464h6.577Zm15.425 0c3.19 0 5.467.865 6.83 2.594.999 1.31 1.497 2.948 1.497 4.913 0 .708-.06 1.454-.181 2.24l-1.425 8.765c-.487 2.96-1.681 5.332-3.58 7.114-1.9 1.782-4.359 2.672-7.38 2.672H77.34l4.64-28.298h10.228Zm-2.302 6.132h-2.374L84.939 29.95h3.47c1.144 0 2.033-.328 2.666-.982.658-.682 1.108-1.782 1.35-3.301l1.061-6.446c.092-.52.141-1.046.146-1.573 0-2.49-1.241-3.733-3.726-3.733v.001Zm30.206 22.166h-18.337l4.641-28.298h18.337l-1.023 6.132h-11.762l-.84 5.306h9.716l-1.022 6.13h-9.717l-.73 4.599h11.762l-1.024 6.131h-.001Zm20.865 0H124.32l4.64-28.298h6.575l-3.616 22.167H142l-1.023 6.131Zm-64.506 5.036h63.543L138.029 47H74.486l1.985-5.882ZM9.95-3h69.5l-1.986 5.882h-69.5L9.95-3Z" fill="#9C9C9C"/></g><defs><clipPath id="a"><path fill="#fff" d="M0 0h139v50H0z"/></clipPath></defs></svg>